<?xml version="1.0" encoding="UTF-8" standalone="no"?>
<svg
   width="141.10681"
   height="141.10681"
   viewBox="0 0 141.10681 141.10681"
   version="1.1"
   xml:space="preserve"
   style="clip-rule:evenodd;fill-rule:evenodd"
   id="svg11"
   xmlns="http://www.w3.org/2000/svg"
   xmlns:svg="http://www.w3.org/2000/svg"><defs
   id="defs11" />
    <g
   id="layer1"
   transform="translate(-123.2673,-3.17757)">
        <g
   id="layer1-3"
   transform="matrix(1.03839,0,0,1.03839,123.178,3.08827)">
            <circle
   id="path9"
   cx="68.030998"
   cy="68.030998"
   r="67.195"
   style="fill:#ffe6ff;stroke:#1b9822;stroke-width:1.5px" />
            <ellipse
   id="path4"
   cx="68.030998"
   cy="68.030998"
   rx="25.77"
   ry="26.106001"
   style="fill:#f0ebff;stroke:#1b9822;stroke-width:1.42px" />
            <g
   id="g9"
   transform="translate(2.65748,-2.30315)">
                <path
   id="path6"
   d="m 65.595,39.976 c 0.146,-5.46 0.514,-13.267 0.745,-15.843 0.409,-4.545 1.324,-8.927 2.179,-10.435 0.459,-0.811 0.519,-0.847 1.332,-0.803 1.47,0.079 5.048,1.757 6.75,3.165 2.494,2.063 3.425,3.7 3.857,6.785 0.553,3.957 0.133,8.454 -1.047,11.204 -0.811,1.889 -3.892,5.066 -6.351,6.55 -1.749,1.055 -4.438,2.021 -6.986,2.511 l -0.566,0.108 z"
   style="fill:#1b9822;fill-rule:nonzero;stroke:#1b9822;stroke-width:0.1px" />
                <path
   id="path5"
   d="m 66.081,43.412 c 0,0 3.905,-0.361 7.272,-2.594 1.152,-0.764 4.746,-4.038 5.642,-6.64 1.321,-3.832 1.369,-7.43 0.783,-11.851 -0.57,-4.302 -3.971,-7.176 -7.155,-8.497 -3.34,-1.384 -3.926,-1.317 -4.92,3.019 -1.186,5.173 -1.223,10.044 -1.545,16.887 -0.242,5.165 -0.133,10.469 -0.174,12.293 -0.105,4.739 -7.318,67.328 -7.951,70.682 -0.351,1.862 -1.256,2.989 -1.848,3.608 -0.782,0.818 -1.329,1.172 -2.318,1.604 -1.574,0.687 -1.297,0.671 -2.4,0.913 -0.836,0.183 -1.626,0.286 -2.32,0.281 -1.161,-0.008 -1.875,-0.357 -2.414,-0.655 -0.849,-0.471 -1.863,-1.31 -2.221,-2.109 -0.437,-0.975 -0.558,-2.594 -0.455,-3.807 0.074,-0.862 0.294,-2.578 0.893,-3.504 0.798,-1.233 1.791,-2.387 2.773,-3.034 1.259,-0.829 2.799,-1.268 3.415,-1.4 1.347,-0.288 3.002,-0.501 4.198,-0.592 2.071,-0.159 3.926,-0.032 3.926,-0.032"
   style="fill:none;fill-rule:nonzero;stroke:#1b9822;stroke-width:1.42px" />
            </g>
        </g>
        
        
        
        
        <g
   id="g23">
        </g>
        
    </g>
</svg>
