<?xml version="1.0" encoding="UTF-8" standalone="no"?>
<!-- Created with Inkscape (http://www.inkscape.org/) -->

<svg
   width="114.70939mm"
   height="114.70953mm"
   viewBox="0 0 114.70939 114.70953"
   version="1.1"
   id="svg1"
   xmlns="http://www.w3.org/2000/svg"
   xmlns:svg="http://www.w3.org/2000/svg">
  <defs
     id="defs1" />
  <g
     id="layer1"
     transform="translate(-19.847483,-47.222565)">
    <path
       style="fill:#000000;stroke:#000000;stroke-width:2;stroke-linecap:round;stroke-dasharray:none"
       d="M 20.847483,160.9321 77.202255,48.222565"
       id="path3" />
    <path
       style="fill:none;stroke:#000000;stroke-width:2;stroke-linecap:round;stroke-linejoin:round;stroke-dasharray:none"
       d="M 77.202255,48.222565 133.55703,160.9321 49.024869,104.57733"
       id="path4" />
    <path
       style="fill:none;stroke:#000000;stroke-width:2;stroke-linecap:round;stroke-dasharray:none"
       d="M 20.847483,160.9321 105.37964,104.57733"
       id="path5" />
    <path
       style="fill:none;stroke:#000000;stroke-width:2;stroke-linecap:round;stroke-linejoin:round;stroke-dasharray:none"
       d="M 48.988294,104.63219 91.388005,76.365722"
       id="path5-3" />
    <path
       style="fill:none;stroke:#000000;stroke-width:2;stroke-linecap:round;stroke-linejoin:round;stroke-dasharray:none"
       d="M 77.202255,48.222565 V 122.12579"
       id="path6" />
    <path
       style="fill:#ffd5f6;stroke:#000000;stroke-width:0;stroke-linecap:round;stroke-linejoin:round;stroke-dasharray:none"
       d="m 78.276314,103.82833 0.004,-17.44145 6.287633,-4.182719 c 3.458199,-2.300496 6.306319,-4.162343 6.329161,-4.13744 0.267771,0.291981 13.043482,26.149329 12.958422,26.227169 -0.2016,0.18448 -25.435685,16.97588 -25.511327,16.97588 -0.03957,0 -0.07013,-7.84865 -0.06792,-17.44144 z"
       id="path26" />
    <path
       style="fill:#c6afe9;stroke:#000000;stroke-width:0;stroke-linecap:round;stroke-linejoin:round;stroke-dasharray:none"
       d="M 63.648578,112.99491 C 56.821804,108.4438 51.23626,104.6559 51.23626,104.57735 c 0,-0.0786 5.585544,-3.86646 12.412318,-8.417574 l 12.412318,-8.274746 0.03681,8.346157 c 0.02024,4.590393 0.02024,12.101923 0,16.692313 l -0.03681,8.34616 z"
       id="path27" />
    <path
       style="fill:#aaccff;stroke:#000000;stroke-width:0;stroke-linecap:round;stroke-linejoin:round;stroke-dasharray:none"
       d="M 105.04424,140.59702 C 91.01005,131.23808 79.468457,123.5217 79.39626,123.44951 c -0.07991,-0.0799 4.865675,-3.46251 12.640591,-8.6457 7.02452,-4.68293 12.820149,-8.51442 12.879169,-8.51442 0.11068,0 25.76631,51.22154 25.6885,51.28715 -0.024,0.0202 -11.52608,-7.62059 -25.56028,-16.97952 z"
       id="path28" />
    <path
       style="fill:#ffd5f6;stroke:#000000;stroke-width:0;stroke-linecap:round;stroke-linejoin:round;stroke-dasharray:none"
       d="m 23.772224,157.59562 c 0,-0.0483 5.778241,-11.64424 12.840539,-25.76866 l 12.840536,-25.68076 12.875789,8.5795 c 7.081684,4.71873 12.891867,8.59238 12.911523,8.60811 0.02635,0.0211 -48.659081,32.5194 -51.076044,34.09409 -0.215789,0.14059 -0.392343,0.21607 -0.392343,0.16772 z"
       id="path29" />
    <path
       style="fill:#aaccff;stroke:#000000;stroke-width:0;stroke-linecap:round;stroke-linejoin:round;stroke-dasharray:none"
       d="m 63.942284,77.163277 c 6.643161,-13.28869 12.103558,-24.188004 12.134212,-24.220699 0.03065,-0.03269 0.05394,7.222091 0.05175,16.121745 l -0.004,16.181194 -11.994446,7.989539 c -6.596943,4.394244 -12.055543,8.012024 -12.130222,8.039504 -0.07468,0.0275 5.299535,-10.822593 11.942696,-24.111283 z"
       id="path30" />
    <path
       style="fill:#c6afe9;stroke:#000000;stroke-width:0;stroke-linecap:round;stroke-linejoin:round;stroke-dasharray:none"
       d="m 78.280134,68.317426 0.0079,-15.458072 5.762453,11.484961 c 3.169349,6.316729 5.764305,11.549163 5.76657,11.627631 0.0031,0.107783 -8.206044,5.667697 -11.132539,7.539871 l -0.412179,0.263681 z"
       id="path31" />
  </g>
</svg>
